<?xml version="1.0" standalone="no"?>
<!DOCTYPE svg PUBLIC "-//W3C//DTD SVG 20010904//EN"
 "http://www.w3.org/TR/2001/REC-SVG-20010904/DTD/svg10.dtd">
<svg version="1.0" xmlns="http://www.w3.org/2000/svg"
 width="500.000000pt" height="500.000000pt" viewBox="0 0 500.000000 500.000000"
 preserveAspectRatio="xMidYMid meet">
<metadata>
Created by potrace 1.14, written by Peter Selinger 2001-2017
</metadata>
<g transform="translate(0.000000,500.000000) scale(0.100000,-0.100000)"
fill="#000000" stroke="none">
<path d="M2374 4608 c47 -85 66 -167 66 -280 0 -156 -42 -285 -159 -482 -128
-218 -183 -356 -208 -531 -29 -193 8 -388 111 -600 77 -158 182 -300 423 -577
244 -279 361 -431 453 -585 122 -204 166 -349 157 -517 -6 -116 -29 -192 -84
-276 -46 -70 -155 -176 -221 -215 -29 -16 -52 -33 -52 -37 0 -13 114 32 207
82 307 166 470 367 549 675 25 98 28 127 28 260 -1 231 -46 373 -238 762 -145
290 -187 396 -206 516 -17 101 -8 245 18 320 11 31 16 57 12 57 -11 0 -79 -98
-107 -155 -58 -114 -82 -262 -64 -398 13 -93 7 -118 -30 -137 -11 -6 -28 -8
-38 -5 -59 18 -267 287 -341 439 -118 244 -144 470 -99 860 16 136 20 220 17
341 -4 148 -7 167 -37 255 -18 52 -46 120 -63 150 -29 53 -104 140 -120 140
-4 0 8 -28 26 -62z"/>
<path d="M2034 4033 c-1 -66 -28 -137 -75 -195 -34 -43 -26 -47 31 -18 89 45
125 148 79 229 -12 23 -25 41 -28 41 -4 0 -7 -26 -7 -57z"/>
<path d="M2783 3727 c17 -45 18 -148 3 -250 -32 -212 -16 -342 52 -426 36 -45
57 -53 37 -14 -21 40 -19 137 6 240 17 69 20 105 15 168 -8 106 -60 251 -102
286 -16 12 -17 12 -11 -4z"/>
<path d="M1570 3489 c-43 -55 -70 -129 -70 -194 0 -51 24 -122 79 -235 40 -81
42 -88 39 -165 -2 -44 -7 -88 -12 -97 -5 -11 -4 -18 1 -18 6 0 23 24 39 53 27
48 29 60 29 157 0 96 -3 115 -39 219 -44 128 -50 217 -22 285 19 45 19 46 6
46 -5 0 -28 -23 -50 -51z"/>
<path d="M3545 3054 c-20 -21 -50 -68 -68 -104 -30 -60 -32 -71 -32 -170 1
-128 19 -182 101 -291 72 -97 91 -108 64 -37 -87 227 -103 460 -40 590 11 23
18 44 15 46 -2 3 -21 -13 -40 -34z"/>
<path d="M1804 2783 c25 -81 11 -208 -35 -319 -17 -40 -80 -151 -141 -246 -60
-95 -119 -192 -131 -215 -11 -23 -27 -45 -35 -48 -31 -12 -61 36 -82 130 -15
73 -49 141 -87 176 -38 36 -110 71 -136 67 -21 -3 -20 -4 8 -22 42 -26 74 -68
101 -134 36 -87 33 -176 -12 -337 -76 -271 -85 -311 -91 -415 -10 -180 36
-348 139 -501 88 -131 224 -251 368 -324 76 -39 260 -107 278 -103 8 2 -17 24
-56 51 -96 65 -193 171 -231 249 -97 204 -65 366 146 733 200 349 247 484 246
715 0 154 -18 232 -78 350 -58 111 -193 264 -171 193z"/>
<path d="M2466 1803 c13 -164 -39 -290 -216 -533 -142 -193 -173 -246 -201
-338 -54 -182 8 -350 160 -431 154 -82 331 -52 457 77 181 185 194 445 43 820
-75 184 -226 482 -245 482 -2 0 -1 -35 2 -77z"/>
</g>
</svg>
